<mxfile host="app.diagrams.net" modified="2021-08-01T02:11:09.078Z" agent="5.0 (Macintosh; Intel Mac OS X 10_15_7) AppleWebKit/537.36 (KHTML, like Gecko) Chrome/92.0.4515.107 Safari/537.36" etag="uyp_rjtnLFzVywBYlAbn" version="14.9.3" type="github">
  <diagram id="95uC0-5RRBxN5uwg9bys" name="Page-1">
    <mxGraphModel dx="786" dy="433" grid="1" gridSize="10" guides="1" tooltips="1" connect="1" arrows="1" fold="1" page="1" pageScale="1" pageWidth="827" pageHeight="1169" math="0" shadow="0">
      <root>
        <mxCell id="0" />
        <mxCell id="1" parent="0" />
        <mxCell id="xqMeAvLGvaLpMlTr5o7N-4" style="rounded=0;orthogonalLoop=1;jettySize=auto;html=1;exitX=0.5;exitY=1;exitDx=0;exitDy=0;entryX=0.5;entryY=0;entryDx=0;entryDy=0;" edge="1" parent="1" source="xqMeAvLGvaLpMlTr5o7N-1" target="xqMeAvLGvaLpMlTr5o7N-3">
          <mxGeometry relative="1" as="geometry" />
        </mxCell>
        <mxCell id="xqMeAvLGvaLpMlTr5o7N-9" style="edgeStyle=none;rounded=0;orthogonalLoop=1;jettySize=auto;html=1;exitX=0.5;exitY=1;exitDx=0;exitDy=0;entryX=0.5;entryY=0;entryDx=0;entryDy=0;" edge="1" parent="1" source="xqMeAvLGvaLpMlTr5o7N-1" target="xqMeAvLGvaLpMlTr5o7N-7">
          <mxGeometry relative="1" as="geometry" />
        </mxCell>
        <mxCell id="xqMeAvLGvaLpMlTr5o7N-1" value="开始" style="rounded=1;whiteSpace=wrap;html=1;" vertex="1" parent="1">
          <mxGeometry x="240" y="20" width="70" height="30" as="geometry" />
        </mxCell>
        <mxCell id="xqMeAvLGvaLpMlTr5o7N-2" value="结束" style="rounded=1;whiteSpace=wrap;html=1;" vertex="1" parent="1">
          <mxGeometry x="240" y="560" width="70" height="30" as="geometry" />
        </mxCell>
        <mxCell id="xqMeAvLGvaLpMlTr5o7N-6" style="edgeStyle=orthogonalEdgeStyle;rounded=0;orthogonalLoop=1;jettySize=auto;html=1;exitX=0.5;exitY=1;exitDx=0;exitDy=0;entryX=0.5;entryY=0;entryDx=0;entryDy=0;" edge="1" parent="1" source="xqMeAvLGvaLpMlTr5o7N-3" target="xqMeAvLGvaLpMlTr5o7N-5">
          <mxGeometry relative="1" as="geometry" />
        </mxCell>
        <mxCell id="xqMeAvLGvaLpMlTr5o7N-3" value="接入监控区域内所有视频或在重要地点安装摄像头" style="rounded=1;whiteSpace=wrap;html=1;" vertex="1" parent="1">
          <mxGeometry x="118" y="90" width="120" height="60" as="geometry" />
        </mxCell>
        <mxCell id="xqMeAvLGvaLpMlTr5o7N-12" style="edgeStyle=none;rounded=0;orthogonalLoop=1;jettySize=auto;html=1;exitX=0.5;exitY=1;exitDx=0;exitDy=0;entryX=0.292;entryY=0;entryDx=0;entryDy=0;entryPerimeter=0;" edge="1" parent="1" source="xqMeAvLGvaLpMlTr5o7N-5" target="xqMeAvLGvaLpMlTr5o7N-11">
          <mxGeometry relative="1" as="geometry">
            <mxPoint x="216.79999999999995" y="250" as="targetPoint" />
          </mxGeometry>
        </mxCell>
        <mxCell id="xqMeAvLGvaLpMlTr5o7N-5" value="非法加油车监测系统收集所有视频" style="rounded=1;whiteSpace=wrap;html=1;" vertex="1" parent="1">
          <mxGeometry x="118" y="170" width="120" height="60" as="geometry" />
        </mxCell>
        <mxCell id="xqMeAvLGvaLpMlTr5o7N-10" style="edgeStyle=none;rounded=0;orthogonalLoop=1;jettySize=auto;html=1;exitX=0.5;exitY=1;exitDx=0;exitDy=0;entryX=0.5;entryY=0;entryDx=0;entryDy=0;" edge="1" parent="1" source="xqMeAvLGvaLpMlTr5o7N-7" target="xqMeAvLGvaLpMlTr5o7N-8">
          <mxGeometry relative="1" as="geometry" />
        </mxCell>
        <mxCell id="xqMeAvLGvaLpMlTr5o7N-7" value="收集所有具有违法行为的相关图片和视频，用于后续算法研发和测试" style="rounded=1;whiteSpace=wrap;html=1;" vertex="1" parent="1">
          <mxGeometry x="312" y="90" width="120" height="60" as="geometry" />
        </mxCell>
        <mxCell id="xqMeAvLGvaLpMlTr5o7N-13" style="edgeStyle=none;rounded=0;orthogonalLoop=1;jettySize=auto;html=1;exitX=0.5;exitY=1;exitDx=0;exitDy=0;entryX=0.75;entryY=0;entryDx=0;entryDy=0;" edge="1" parent="1" source="xqMeAvLGvaLpMlTr5o7N-8" target="xqMeAvLGvaLpMlTr5o7N-11">
          <mxGeometry relative="1" as="geometry">
            <mxPoint x="296" y="251.01999999999998" as="targetPoint" />
          </mxGeometry>
        </mxCell>
        <mxCell id="xqMeAvLGvaLpMlTr5o7N-8" value="开发出满足需求的视频分析算法" style="rounded=1;whiteSpace=wrap;html=1;" vertex="1" parent="1">
          <mxGeometry x="312" y="170" width="120" height="60" as="geometry" />
        </mxCell>
        <mxCell id="xqMeAvLGvaLpMlTr5o7N-15" style="edgeStyle=none;rounded=0;orthogonalLoop=1;jettySize=auto;html=1;exitX=0.5;exitY=1;exitDx=0;exitDy=0;entryX=0.5;entryY=0;entryDx=0;entryDy=0;" edge="1" parent="1" source="xqMeAvLGvaLpMlTr5o7N-11" target="xqMeAvLGvaLpMlTr5o7N-14">
          <mxGeometry relative="1" as="geometry" />
        </mxCell>
        <mxCell id="xqMeAvLGvaLpMlTr5o7N-11" value="用算法对收集到的视频进行分析并进行违法统计和证据处理" style="rounded=1;whiteSpace=wrap;html=1;" vertex="1" parent="1">
          <mxGeometry x="215" y="250" width="120" height="60" as="geometry" />
        </mxCell>
        <mxCell id="xqMeAvLGvaLpMlTr5o7N-18" style="edgeStyle=none;rounded=0;orthogonalLoop=1;jettySize=auto;html=1;exitX=0.5;exitY=1;exitDx=0;exitDy=0;entryX=0.5;entryY=0;entryDx=0;entryDy=0;" edge="1" parent="1" source="xqMeAvLGvaLpMlTr5o7N-14" target="xqMeAvLGvaLpMlTr5o7N-17">
          <mxGeometry relative="1" as="geometry" />
        </mxCell>
        <mxCell id="xqMeAvLGvaLpMlTr5o7N-14" value="进行人工验证，确定算法成功率满足需求进行实时视频分析" style="rounded=1;whiteSpace=wrap;html=1;" vertex="1" parent="1">
          <mxGeometry x="215" y="330" width="120" height="60" as="geometry" />
        </mxCell>
        <mxCell id="xqMeAvLGvaLpMlTr5o7N-20" style="edgeStyle=none;rounded=0;orthogonalLoop=1;jettySize=auto;html=1;exitX=0.5;exitY=1;exitDx=0;exitDy=0;entryX=0.5;entryY=0;entryDx=0;entryDy=0;" edge="1" parent="1" source="xqMeAvLGvaLpMlTr5o7N-17" target="xqMeAvLGvaLpMlTr5o7N-19">
          <mxGeometry relative="1" as="geometry" />
        </mxCell>
        <mxCell id="xqMeAvLGvaLpMlTr5o7N-17" value="进行实时视频分析，进行违法统计和证据处理，同时发出警告信息" style="rounded=1;whiteSpace=wrap;html=1;" vertex="1" parent="1">
          <mxGeometry x="215" y="410" width="120" height="60" as="geometry" />
        </mxCell>
        <mxCell id="xqMeAvLGvaLpMlTr5o7N-21" style="edgeStyle=none;rounded=0;orthogonalLoop=1;jettySize=auto;html=1;exitX=0.5;exitY=1;exitDx=0;exitDy=0;entryX=0.5;entryY=0;entryDx=0;entryDy=0;" edge="1" parent="1" source="xqMeAvLGvaLpMlTr5o7N-19" target="xqMeAvLGvaLpMlTr5o7N-2">
          <mxGeometry relative="1" as="geometry" />
        </mxCell>
        <mxCell id="xqMeAvLGvaLpMlTr5o7N-19" value="警务人员进行证据确认和执法处理" style="rounded=1;whiteSpace=wrap;html=1;" vertex="1" parent="1">
          <mxGeometry x="212.5" y="490" width="125" height="45" as="geometry" />
        </mxCell>
      </root>
    </mxGraphModel>
  </diagram>
</mxfile>
